<?xml version="1.0" encoding="utf-8"?>
<!-- Generator: Adobe Illustrator 27.2.0, SVG Export Plug-In . SVG Version: 6.00 Build 0)  -->
<svg version="1.1" xmlns="http://www.w3.org/2000/svg" xmlns:xlink="http://www.w3.org/1999/xlink" x="0px" y="0px"
	 viewBox="0 0 576 486" style="enable-background:new 0 0 576 486;" xml:space="preserve">
<style type="text/css">
	.st0{fill:#ADCDFB;stroke:#3A3836;stroke-width:2;stroke-miterlimit:10;}
	.st1{fill:#E6E6E6;stroke:#3A3836;stroke-width:2;stroke-miterlimit:10;}
	.st2{fill:#FFFFFF;stroke:#3A3836;stroke-width:2;stroke-miterlimit:10;}
	.st3{fill:#FFF4BE;}
	.st4{fill:#E6E6E6;}
	.st5{clip-path:url(#SVGID_00000071527342664863732740000004961614842238472579_);}
	.st6{fill:#FFFFFF;}
	.st7{fill:#FFFFFF;stroke:#3A3836;stroke-width:2;stroke-linecap:round;stroke-linejoin:round;}
	.st8{fill:#3A3836;}
	.st9{fill:none;stroke:#3A3836;stroke-width:2;stroke-linecap:round;stroke-linejoin:round;}
	.st10{fill:none;stroke:#3A3836;stroke-width:2;stroke-miterlimit:10;}
	.st11{fill:#D1DAFA;}
	
		.st12{fill:url(#SVGID_00000086672271992598594580000008776950718353514149_);stroke:#3A3836;stroke-width:2;stroke-linecap:round;stroke-linejoin:round;}
	.st13{fill:#FFFFFF;stroke:#3A3836;stroke-width:2;stroke-linecap:round;stroke-linejoin:round;stroke-miterlimit:10;}
	.st14{fill:#E5E5E5;}
	.st15{opacity:0.3;}
	.st16{fill:#262626;}
	.st17{fill:none;stroke:#666462;stroke-width:2;stroke-miterlimit:10;}
	.st18{fill:none;stroke:#3A3836;stroke-width:2;stroke-linecap:round;stroke-linejoin:round;stroke-miterlimit:10;}
	.st19{fill:url(#SVGID_00000074443345148412513870000006656058235132379580_);}
	.st20{fill:url(#SVGID_00000053506916807607408280000006537299018398961597_);}
	.st21{fill:#FD8753;stroke:#3A3836;stroke-width:2;stroke-miterlimit:10;}
	.st22{fill:#3A3836;stroke:#3A3836;stroke-width:2;stroke-miterlimit:10;}
</style>
<g id="Book">
	<g>
		<g>
			<path class="st0" d="M22.6,27l238.6,16.6v359.5L22.1,392.5c-2.7-0.1-4.8-2.3-4.8-5V32C17.3,29.1,19.7,26.8,22.6,27z"/>
			<path class="st0" d="M499.8,27L261.2,43.6v359.5l239.2-10.6c2.7-0.1,4.8-2.3,4.8-5V32C505.1,29.1,502.7,26.8,499.8,27z"/>
		</g>
		<g>
			<g>
				<path class="st1" d="M261.2,398c-78.9-0.9-157-13.2-235.9-14.1c0-116.6,0-233.2,0-349.7c78.9,0.9,157,13.2,235.9,14.1
					C261.2,164.9,261.2,281.4,261.2,398z"/>
			</g>
			<g>
				<path class="st1" d="M261.2,395.1C185,393.7,110.5,375.3,34.3,374c0-116.6,0-233.2,0-349.7C110.5,25.6,185,44,261.2,45.4
					C261.2,161.9,261.2,278.5,261.2,395.1z"/>
			</g>
			<g>
				<g>
					<path class="st2" d="M261.2,392.4C187.6,390.5,117,366,43.3,364.2c0-116.6,0-233.2,0-349.8c73.6,1.8,144.2,26.3,217.9,28.1"/>
					<path class="st3" d="M140.7,133.4c-23.5-4.4-46.8-8.3-70.6-10.6c-2.7-0.2-4.9-2.6-4.9-5.3c0-23.5,0-47.1,0-70.6
						c0-2.7,2.2-4.7,4.9-4.5c23.8,2.3,47.1,6.2,70.6,10.6c2.7,0.5,4.9,3.1,4.9,5.8c0,23.5,0,47.1,0,70.6
						C145.6,132.2,143.4,133.9,140.7,133.4z"/>
					<path class="st2" d="M126.1,115.1c0-13.8,0-27.6,0-41.4c-5.2-0.9-7.8-1.4-13-2.3c0-4.3-3.5-8.3-7.7-9c-4.3-0.7-7.7,2.3-7.7,6.6
						c-5.2-0.8-7.8-1.1-13-1.7c0,5.2,0,7.8,0,13c4.3,0.5,7.7,4.4,7.7,8.7c0,4.3-3.5,7.2-7.7,6.7c0,5.2,0,7.8,0,13
						C98.5,110.5,112.3,112.6,126.1,115.1z"/>
					<path class="st3" d="M140.7,349.3c-23.5-4.4-46.8-8.3-70.6-10.6c-2.7-0.2-4.9-2.6-4.9-5.3c0-23.5,0-47.1,0-70.6
						c0-2.7,2.2-4.7,4.9-4.5c23.8,2.3,47.1,6.2,70.6,10.6c2.7,0.5,4.9,3.1,4.9,5.8c0,23.5,0,47.1,0,70.6
						C145.6,348.1,143.4,349.8,140.7,349.3z"/>
					<path class="st3" d="M140.7,241.4c-23.5-4.4-46.8-8.3-70.6-10.6c-2.7-0.2-4.9-2.6-4.9-5.3c0-23.5,0-47.1,0-70.6
						c0-2.7,2.2-4.7,4.9-4.5c23.8,2.3,47.1,6.2,70.6,10.6c2.7,0.5,4.9,3.1,4.9,5.8c0,23.5,0,47.1,0,70.6
						C145.6,240.1,143.4,241.9,140.7,241.4z"/>
					<g>
						<g>
							<path class="st4" d="M229.1,111.1c-23.1-2.6-45.8-6.5-68.6-10.8c-1.7-0.3-3.1-2-3.1-3.7l0,0c0-1.7,1.4-2.9,3.1-2.5
								c22.8,4.3,45.5,8.2,68.6,10.8c1.7,0.2,3.1,1.7,3.1,3.4l0,0C232.2,110,230.8,111.3,229.1,111.1z"/>
							<path class="st4" d="M241.3,125.4c-27.2-2.2-53.9-6.7-80.7-11.8c-1.7-0.3-3.1-2-3.1-3.7v0c0-1.7,1.4-2.9,3.1-2.5
								c26.8,5.1,53.5,9.6,80.7,11.8c1.7,0.1,3.1,1.6,3.1,3.3v0C244.4,124.2,243,125.5,241.3,125.4z"/>
							<path class="st4" d="M224.9,137c-21.6-2.6-43-6.3-64.4-10.3c-1.7-0.3-3.1-2-3.1-3.7l0,0c0-1.7,1.4-2.9,3.1-2.5
								c21.4,4,42.8,7.7,64.4,10.3c1.7,0.2,3.1,1.7,3.1,3.5l0,0C228.1,135.9,226.7,137.2,224.9,137z"/>
						</g>
						<path class="st4" d="M225.3,91.7c-20.5-2.4-40.7-5.9-60.9-9.6c-3.8-0.7-6.9-4.4-6.9-8.3v0c0-3.8,3.1-6.4,6.9-5.6
							c20.2,3.8,40.5,7.2,60.9,9.6c3.8,0.4,6.9,3.8,6.9,7.6v0C232.2,89.2,229.1,92.1,225.3,91.7z"/>
					</g>
					<g>
						<g>
							<path class="st4" d="M237.9,219.8c-26.1-2.4-51.6-6.7-77.4-11.5c-1.7-0.3-3.1-2-3.1-3.7l0,0c0-1.7,1.4-2.9,3.1-2.5
								c25.7,4.8,51.3,9.1,77.4,11.5c1.7,0.1,3.1,1.6,3.1,3.4l0,0C241.1,218.7,239.6,220,237.9,219.8z"/>
							<path class="st4" d="M231.5,232.5c-23.9-2.5-47.4-6.5-70.9-11c-1.7-0.3-3.1-2-3.1-3.7l0,0c0-1.7,1.4-2.9,3.1-2.5
								c23.6,4.5,47.1,8.5,70.9,11c1.7,0.2,3.1,1.7,3.1,3.4l0,0C234.6,231.4,233.2,232.7,231.5,232.5z"/>
							<path class="st4" d="M185.7,239.3c-10.1-1.8-15.1-2.7-25.2-4.6c-1.7-0.3-3.1-2-3.1-3.7l0,0c0-1.7,1.4-2.9,3.1-2.5
								c10.1,1.9,15.1,2.9,25.2,4.6c1.7,0.3,3.1,1.9,3.1,3.7l0,0C188.9,238.4,187.5,239.6,185.7,239.3z"/>
						</g>
						<path class="st4" d="M205.7,197.1c-13.8-2.1-27.6-4.6-41.3-7.1c-3.8-0.7-6.9-4.4-6.9-8.3v0c0-3.8,3.1-6.4,6.9-5.6
							c13.8,2.6,27.5,5,41.3,7.1c3.8,0.6,6.9,4.1,6.9,7.9v0C212.6,195,209.5,197.7,205.7,197.1z"/>
					</g>
					<g>
						<g>
							<path class="st4" d="M236,327.6c-25.4-2.4-50.3-6.7-75.4-11.4c-1.7-0.3-3.1-2-3.1-3.7l0,0c0-1.7,1.4-2.9,3.1-2.5
								c25.1,4.7,50,8.9,75.4,11.4c1.7,0.1,3.1,1.6,3.1,3.4l0,0C239.1,326.5,237.7,327.8,236,327.6z"/>
							<path class="st4" d="M235.4,340.8c-25.2-2.5-50-6.6-74.9-11.3c-1.7-0.3-3.1-2-3.1-3.7l0,0c0-1.7,1.4-2.9,3.1-2.5
								c24.9,4.7,49.6,8.9,74.9,11.3c1.7,0.1,3.1,1.7,3.1,3.4l0,0C238.5,339.7,237.1,341,235.4,340.8z"/>
							<path class="st4" d="M224,352.8c-21.3-2.6-42.3-6.3-63.4-10.2c-1.7-0.3-3.1-2-3.1-3.7l0,0c0-1.7,1.4-2.9,3.1-2.5
								c21.1,4,42.1,7.6,63.4,10.2c1.7,0.2,3.1,1.7,3.1,3.5l0,0C227.1,351.8,225.7,353,224,352.8z"/>
						</g>
						<path class="st4" d="M215.5,306.4c-17.1-2.4-34.1-5.3-51.1-8.5c-3.8-0.7-6.9-4.4-6.9-8.3v0c0-3.8,3.1-6.4,6.9-5.6
							c17,3.2,34,6.1,51.1,8.5c3.8,0.5,6.9,4,6.9,7.8v0C222.4,304.1,219.3,306.9,215.5,306.4z"/>
					</g>
					<g>
						<g>
							<defs>
								<path id="SVGID_1_" d="M83.9,173.4c14.4,1.9,28.7,4.1,42.9,6.6c0,12.4,0,24.7,0,37.1c-14.3-2.5-28.6-4.8-42.9-6.6
									C83.9,198.1,83.9,185.8,83.9,173.4z"/>
							</defs>
							<clipPath id="SVGID_00000043446973918764377370000013982107910366106518_">
								<use xlink:href="#SVGID_1_"  style="overflow:visible;"/>
							</clipPath>
							<g style="clip-path:url(#SVGID_00000043446973918764377370000013982107910366106518_);">
								<path class="st6" d="M126.1,180.7c-13.8-2.4-27.6-4.6-41.5-6.4c0,2.5,0,3.7,0,6.2c13.9,1.8,27.7,4,41.5,6.4
									C126.1,184.4,126.1,183.2,126.1,180.7z"/>
								<path class="st7" d="M124.5,180.4c-12.7-2.3-25.4-4.3-38.2-5.9c-0.9-0.1-1.6,0.5-1.6,1.3c0,10.9,0,21.8,0,32.7
									c0,0.8,0.7,1.5,1.6,1.7c12.8,1.6,25.5,3.6,38.2,5.9c0.9,0.2,1.6-0.4,1.6-1.2c0-10.9,0-21.8,0-32.7
									C126.1,181.3,125.4,180.6,124.5,180.4z"/>
								<path class="st8" d="M88.4,178.7c0.5,0.1,1-0.3,1-0.8c0-0.5-0.4-1-1-1.1c-0.5-0.1-1,0.3-1,0.8
									C87.5,178.2,87.9,178.7,88.4,178.7z"/>
								<path class="st8" d="M92,179.2c0.5,0.1,1-0.3,1-0.8c0-0.5-0.4-1-1-1.1c-0.5-0.1-1,0.3-1,0.8C91,178.6,91.5,179.1,92,179.2z"
									/>
								<path class="st8" d="M95.6,179.7c0.5,0.1,1-0.3,1-0.8c0-0.5-0.4-1-1-1.1c-0.5-0.1-1,0.3-1,0.8
									C94.6,179.1,95,179.6,95.6,179.7z"/>
								<path class="st9" d="M84.6,180.5c13.6,1.8,27,3.9,40.5,6.2"/>
							</g>
						</g>
					</g>
					<g>
						<path class="st7" d="M110.8,203.9c3.2-1.4,4.8-2.1,8.1-3.5c-3.2-2.6-4.8-3.8-8.1-6.3"/>
						<path class="st7" d="M108.3,190.8c-2.3,5.8-3.5,8.7-5.8,14.5"/>
						<path class="st7" d="M99.9,192.3c-3.2,1.5-4.8,2.2-8.1,3.8c3.2,2.4,4.8,3.6,8.1,6.1"/>
					</g>
					<g>
						<g>
							<path class="st2" d="M125.5,292.5c0,3.5-2.8,5.8-6.3,5.2c-3.5-0.6-6.3-3.9-6.3-7.4c0-3.5,2.8-5.9,6.3-5.2
								C122.7,285.7,125.5,289,125.5,292.5z"/>
							<path class="st10" d="M91.5,308.2c0-6.4,0-9.7,0-16.1"/>
							<path class="st10" d="M114,306.8c2.1-1.7,3.1-2.6,5.2-4.3c2.1,2.4,3.1,3.7,5.2,6.1"/>
							<path class="st10" d="M119.2,303.6c0,3.2,0,4.8,0,7.9c0,5.3-2.1,7.1-6.3,6.4c-7.2-1.2-10.8-1.8-17.9-2.8"/>
							<path class="st2" d="M97.9,287.9c0,3.5-2.8,5.9-6.3,5.4c-3.5-0.5-6.3-3.6-6.3-7.1s2.8-6,6.3-5.5
								C95,281.2,97.9,284.4,97.9,287.9z"/>
							<path class="st2" d="M97.9,315.6c0,3.5-2.8,5.9-6.3,5.4c-3.5-0.5-6.3-3.6-6.3-7.1c0-3.5,2.8-6,6.3-5.5
								C95,308.9,97.9,312.1,97.9,315.6z"/>
						</g>
					</g>
				</g>
			</g>
			<g>
				<path class="st1" d="M261.2,398c78.9-0.9,157-13.2,235.9-14.1c0-116.6,0-233.2,0-349.7c-78.9,0.9-157,13.2-235.9,14.1
					C261.2,164.9,261.2,281.4,261.2,398z"/>
			</g>
			<g>
				<path class="st1" d="M261.2,395.1c76.2-1.3,150.7-19.8,226.8-21.1c0-116.6,0-233.2,0-349.7C411.9,25.6,337.4,44,261.2,45.4
					C261.2,161.9,261.2,278.5,261.2,395.1z"/>
			</g>
			<g>
				<g>
					<path class="st2" d="M261.2,42.6c73.6-1.8,144.2-26.3,217.9-28.1c0,116.6,0,233.2,0,349.8c-73.6,1.8-144.2,26.3-217.9,28.1"/>
					<path class="st3" d="M358.5,137.9c-23.5,4.4-46.8,8.3-70.6,10.6c-2.7,0.2-4.9-1.8-4.9-4.5c0-23.5,0-47.1,0-70.6
						c0-2.7,2.2-5.1,4.9-5.3c23.8-2.3,47.1-6.2,70.6-10.6c2.7-0.5,4.9,1.3,4.9,4c0,23.5,0,47.1,0,70.6
						C363.4,134.7,361.2,137.3,358.5,137.9z"/>
					<path class="st3" d="M358.5,353.8c-23.5,4.4-46.8,8.3-70.6,10.6c-2.7,0.2-4.9-1.8-4.9-4.5c0-23.5,0-47.1,0-70.6
						c0-2.7,2.2-5.1,4.9-5.3c23.8-2.3,47.1-6.2,70.6-10.6c2.7-0.5,4.9,1.3,4.9,4c0,23.5,0,47.1,0,70.6
						C363.4,350.6,361.2,353.3,358.5,353.8z"/>
					<path class="st11" d="M358.5,245.8c-23.5,4.4-46.8,8.3-70.6,10.6c-2.7,0.2-4.9-1.8-4.9-4.5c0-23.5,0-47.1,0-70.6
						c0-2.7,2.2-5.1,4.9-5.3c23.8-2.3,47.1-6.2,70.6-10.6c2.7-0.5,4.9,1.3,4.9,4c0,23.5,0,47.1,0,70.6
						C363.4,242.7,361.2,245.3,358.5,245.8z"/>
					<g>
						<g>
							<path class="st4" d="M457.3,85.5c-26.6,2.3-52.7,6.7-78.9,11.6c-1.7,0.3-3.1-0.8-3.1-2.5l0,0c0-1.7,1.4-3.4,3.1-3.7
								c26.2-4.9,52.3-9.3,78.9-11.6c1.7-0.1,3.1,1.2,3.1,2.9l0,0C460.5,83.9,459.1,85.4,457.3,85.5z"/>
							<path class="st4" d="M445.9,99.8c-22.7,2.6-45.1,6.4-67.5,10.7c-1.7,0.3-3.1-0.8-3.1-2.5l0,0c0-1.7,1.4-3.4,3.1-3.7
								c22.4-4.2,44.8-8.1,67.5-10.7c1.7-0.2,3.1,1.1,3.1,2.8l0,0C449.1,98.1,447.7,99.6,445.9,99.8z"/>
							<path class="st4" d="M412.3,117.4c-11.3,1.9-22.6,4-33.9,6.1c-1.7,0.3-3.1-0.8-3.1-2.5l0,0c0-1.7,1.4-3.4,3.1-3.7
								c11.3-2.2,22.6-4.3,33.9-6.1c1.7-0.3,3.1,0.9,3.1,2.6l0,0C415.4,115.5,414,117.1,412.3,117.4z"/>
						</g>
						<path class="st4" d="M430.5,69.3c-16.2,2.1-32.3,5.1-48.3,8.1c-3.8,0.7-6.9-1.8-6.9-5.6v0c0-3.8,3.1-7.5,6.9-8.3
							c16-3,32.1-6,48.3-8.1c3.8-0.5,6.9,2.2,6.9,6.1v0C437.4,65.3,434.3,68.8,430.5,69.3z"/>
					</g>
					<g>
						<g>
							<path class="st4" d="M455.8,193.6c-26.1,2.4-51.6,6.7-77.4,11.5c-1.7,0.3-3.1-0.8-3.1-2.5l0,0c0-1.7,1.4-3.4,3.1-3.7
								c25.7-4.8,51.3-9.1,77.4-11.5c1.7-0.1,3.1,1.2,3.1,2.9l0,0C458.9,192,457.5,193.5,455.8,193.6z"/>
							<path class="st4" d="M449.3,207.4c-23.9,2.5-47.4,6.5-70.9,11c-1.7,0.3-3.1-0.8-3.1-2.5l0,0c0-1.7,1.4-3.4,3.1-3.7
								c23.6-4.5,47.1-8.5,70.9-11c1.7-0.2,3.1,1.1,3.1,2.9l0,0C452.5,205.7,451.1,207.2,449.3,207.4z"/>
							<path class="st4" d="M403.6,226.8c-10.1,1.8-15.1,2.7-25.2,4.6c-1.7,0.3-3.1-0.8-3.1-2.5l0,0c0-1.7,1.4-3.4,3.1-3.7
								c10.1-1.9,15.1-2.9,25.2-4.6c1.7-0.3,3.1,0.9,3.1,2.6l0,0C406.7,224.9,405.3,226.5,403.6,226.8z"/>
						</g>
						<path class="st4" d="M446.8,175.3c-21.7,2.4-43.1,6-64.6,10c-3.8,0.7-6.9-1.8-6.9-5.6l0,0c0-3.8,3.1-7.5,6.9-8.3
							c21.5-4,42.9-7.6,64.6-10c3.8-0.4,6.9,2.5,6.9,6.3l0,0C453.7,171.6,450.6,174.9,446.8,175.3z"/>
					</g>
					<g>
						<g>
							<path class="st4" d="M453.8,301.7c-25.4,2.4-50.3,6.7-75.4,11.4c-1.7,0.3-3.1-0.8-3.1-2.5l0,0c0-1.7,1.4-3.4,3.1-3.7
								c25.1-4.7,50-8.9,75.4-11.4c1.7-0.1,3.1,1.2,3.1,2.9l0,0C457,300.1,455.5,301.6,453.8,301.7z"/>
							<path class="st4" d="M453.3,315c-25.2,2.5-50,6.6-74.9,11.3c-1.7,0.3-3.1-0.8-3.1-2.5l0,0c0-1.7,1.4-3.4,3.1-3.7
								c24.9-4.7,49.6-8.9,74.9-11.3c1.7-0.1,3.1,1.2,3.1,2.9l0,0C456.4,313.4,455,314.9,453.3,315z"/>
							<path class="st4" d="M389.4,337.3c-4.4,0.8-6.6,1.2-11,2.1c-1.7,0.3-3.1-0.8-3.1-2.5l0,0c0-1.7,1.4-3.4,3.1-3.7
								c4.4-0.8,6.6-1.3,11-2.1c1.7-0.3,3.1,0.8,3.1,2.6l0,0C392.6,335.4,391.2,337,389.4,337.3z"/>
						</g>
						<path class="st4" d="M408.7,288.5c-10.6,1.8-15.9,2.8-26.5,4.8c-3.8,0.7-6.9-1.8-6.9-5.6v0c0-3.8,3.1-7.5,6.9-8.3
							c10.6-2,15.9-3,26.5-4.8c3.8-0.6,6.9,2,6.9,5.8v0C415.6,284.3,412.5,287.9,408.7,288.5z"/>
					</g>
					<g>
						<g>
							<g>
								<path class="st2" d="M306.2,126.7c1.9-0.2,3.4-2,3.4-3.9c0-1.9-1.5-3.1-3.4-2.9c-1.9,0.2-3.4,2-3.4,3.9
									C302.8,125.6,304.4,126.9,306.2,126.7z"/>
								<path class="st2" d="M323.2,124.2c1.9-0.3,3.4-2.1,3.4-4c0-1.9-1.5-3.1-3.4-2.8c-1.9,0.3-3.4,2.1-3.4,4
									C319.8,123.3,321.3,124.5,323.2,124.2z"/>
								<path class="st2" d="M340.2,121.4c1.9-0.3,3.4-2.2,3.4-4c0-1.9-1.6-3-3.4-2.7c-1.8,0.3-3.4,2.1-3.4,4
									C336.8,120.5,338.3,121.7,340.2,121.4z"/>
								<path class="st2" d="M323.2,117.5c0-3.8,0-5.7,0-9.5"/>
								<path class="st10" d="M337.8,116c-1.5-1.2-2.2-1.8-3.7-3.1c0-2.7,0-4.1,0-6.8"/>
								<path class="st10" d="M308.7,120.6c1.5-1.7,2.2-2.5,3.7-4.2c0-2.7,0-4.1,0-6.8"/>
								<path class="st2" d="M335.4,89.7c-0.3,0-0.5,0.1-0.7,0.1c-0.8-2.2-2.3-4-4.4-5.1c-2.1-1.1-4.5-1.5-7-1.1
									c-2.5,0.4-5,1.6-7,3.3c-2.1,1.7-3.6,4-4.4,6.5c-0.3,0-0.5,0.1-0.7,0.1c-2.2,0.3-4.2,1.4-5.8,3.1c-1.5,1.7-2.3,3.9-2.3,6.1
									s0.8,4.1,2.3,5.5c1.5,1.3,3.6,1.9,5.8,1.6c9.8-1.3,14.6-2.1,24.4-3.8c2.2-0.4,4.2-1.6,5.8-3.4c1.5-1.8,2.3-4,2.3-6.2
									c0-2.2-0.8-4.1-2.3-5.4C339.7,89.8,337.6,89.3,335.4,89.7z"/>
							</g>
						</g>
					</g>
					<g>
						<g>
							<g>
								
									<linearGradient id="SVGID_00000170977268782823492520000010002390758197649061_" gradientUnits="userSpaceOnUse" x1="343.1579" y1="276.136" x2="303.3051" y2="276.136" gradientTransform="matrix(1 0 0 -1 0 488)">
									<stop  offset="0" style="stop-color:#FF6C37"/>
									<stop  offset="1" style="stop-color:#FFB400"/>
								</linearGradient>
								
									<path style="fill:url(#SVGID_00000170977268782823492520000010002390758197649061_);stroke:#3A3836;stroke-width:2;stroke-linecap:round;stroke-linejoin:round;" d="
									M343.2,220c0-9.2,0-13.8,0-23c-8-3.2-12-4.8-19.9-8.1c-8,5.8-12,8.7-19.9,14.3c0,9.2,0,13.8,0,23c8,3.6,12,5.4,19.9,8.7
									C331.2,229,335.2,226,343.2,220z"/>
							</g>
						</g>
					</g>
					<g>
						<g>
							<g>
								<path class="st13" d="M342.1,319.4c0,5.5,0,8.3,0,13.9c-7.6,3.9-11.3,5.8-18.9,9.6c-7.6-1.4-11.3-2.1-18.9-3.7
									c0-5.5,0-8.3,0-13.9l1.6-7.8l17.3-5l17.3-0.4L342.1,319.4z"/>
								<path class="st13" d="M323.2,312.4c1.9,3.8,2.8,5.7,4.7,9.4c6.9-1.1,10.4-1.7,17.3-3c-1.9-2.7-2.8-4.1-4.7-6.8
									C333.6,312.2,330.2,312.3,323.2,312.4z M323.2,312.4c-6.9,2.1-10.4,3.1-17.3,5c-1.9,3.3-2.8,4.9-4.7,8.2
									c6.9-0.8,10.4-1.3,17.3-2.3C320.4,319,321.3,316.8,323.2,312.4z"/>
								<path class="st2" d="M332.9,306.5c-3.5-3.9-5.2-5.9-8.7-9.8c-3.5,5.1-5.2,7.6-8.7,12.6C322.5,308.2,326,307.7,332.9,306.5z"
									/>
								<path class="st2" d="M332.9,306.5c-3.5-3.9-5.2-5.9-8.7-9.8c-3.5,5.1-5.2,7.6-8.7,12.6C322.5,308.2,326,307.7,332.9,306.5z"
									/>
							</g>
						</g>
					</g>
					<path class="st2" d="M323.2,312.6c0,9.8,0,19.6,0,29.4"/>
				</g>
			</g>
			<line class="st2" x1="261.2" y1="392.4" x2="261.2" y2="42.6"/>
		</g>
	</g>
</g>
<g id="Postmanaut">
	<g>
		<g>
			<path class="st6" d="M421.2,279.6l-8.4,153.2c0,0-0.2,25.4,21.4,26.7c21.6,1.3,24.2-27.4,24.2-27.4l8-52.8l2.3-3.6
				c1.1-1.6,3.5-1.6,4.5,0l2.3,3.5l5.9,63c0,0,4.2,17.9,22,17.9c21.3,0,22.5-22.5,22.5-22.5l-1.2-71.6l-2.3,1l11.6-2.6l3.6-7.9
				l-1.5-12.8l5.4-6.9l0.9-83.7v0c0-6.8-5.5-12.4-12.3-12.5l-11.3-0.2l11-13.7c0,0,24.1-35.6-6.5-70c0,0-40.6-43.8-88.6,1.2
				c0,0-26.3,27.7-7.6,64.7l7.7,12.7l-22.4,0.3l-14.2-3.5l-13.3-7.6l-15.1-9.6c0,0-14.8-2.8-23,8.8c-8.1,11.6-0.7,27.5,18.8,37.7
				C385.2,271.9,397.6,279.1,421.2,279.6z"/>
			<path class="st14" d="M546.8,471.5H389.3c-6.6,0-12-5.4-12-12l0,0c0-6.6,5.4-12,12-12h157.4c6.6,0,12,5.4,12,12l0,0
				C558.7,466.2,553.4,471.5,546.8,471.5z"/>
			<g>
				<g>
					<polygon class="st6" points="530.9,364.6 524.1,365.6 524.6,348.4 530.9,348.4 					"/>
					<g>
						<g>
							<path class="st13" d="M434.9,235.5c0,0-27.7,7.8-60-16.5c-9-6.7-21.8-4.5-28,4.9v0c-5.1,7.7-4,18,2.5,24.5
								c12.4,12.3,36,29.6,71.8,31.2l-8.4,153.2c0,13.3,8.1,26.9,21.4,26.7h0c13.1-0.2,20.7-9.1,23.7-23.9l8.5-56.3
								c0.1-2.5,2.1-4.4,4.6-4.4l0,0c2.4,0,4.5,1.9,4.6,4.4l5.4,58.4c0,12.4,10.1,22.5,22.5,22.5h0c12.4,0,22.5-10.1,22.5-22.5
								l-2.8-91.4"/>
							<path class="st18" d="M519,240.7c8.1-7.6,15.3-18.9,18.1-30.6c7.6-31.7-12-63.4-43.7-71c-31.7-7.6-63.5,12-71.1,43.6
								c-5.5,22.9,3.2,45.8,20.4,59.6l4.8,3.8"/>
						</g>
					</g>
					<path class="st18" d="M434.4,233.8c9.4-4.9,18.6-14.2,21.3-25.3c4.6-18.9-5.9-38-23.7-44.6"/>
					<path class="st18" d="M529.5,345.2h-70.7c-7.2,0-13.1-5.9-13.1-13.1V254c0-7.2,5.9-13.1,13.1-13.1h70.7
						c7.2,0,13.1,5.9,13.1,13.1v78.1C542.5,339.4,536.7,345.2,529.5,345.2z"/>
					<path class="st13" d="M524.8,366.2c19,1.7,11.7-20.1,10.9-22.3"/>
					<path class="st18" d="M419.9,301.3c0,0,11.8,5.9,25.7-11.4"/>
					<path class="st18" d="M419.3,315.7c0,0,16.6,1.8,26.6-10.9"/>
					<path class="st18" d="M425.4,236.9c0,0,19.8,8.6,20.3,23"/>
				</g>
				<circle class="st18" cx="487.4" cy="202.4" r="8.8"/>
				<g>
					<path class="st18" d="M471.8,241.6v21.8c0,8.4,6.8,15.2,15.2,15.2h55.2"/>
					
						<linearGradient id="SVGID_00000012434550035560419220000001339740533269519026_" gradientUnits="userSpaceOnUse" x1="490.8853" y1="294.8121" x2="501.708" y2="294.8121">
						<stop  offset="0" style="stop-color:#FF6D37"/>
						<stop  offset="0.5369" style="stop-color:#FA9139"/>
						<stop  offset="1" style="stop-color:#F7AC3B"/>
					</linearGradient>
					<circle style="fill:url(#SVGID_00000012434550035560419220000001339740533269519026_);" cx="496.3" cy="294.8" r="5.4"/>
					
						<linearGradient id="SVGID_00000149366732486689512480000003322602837139916219_" gradientUnits="userSpaceOnUse" x1="507.2709" y1="294.8121" x2="518.0936" y2="294.8121">
						<stop  offset="0" style="stop-color:#FF6D37"/>
						<stop  offset="0.5369" style="stop-color:#FA9139"/>
						<stop  offset="1" style="stop-color:#F7AC3B"/>
					</linearGradient>
					<circle style="fill:url(#SVGID_00000149366732486689512480000003322602837139916219_);" cx="512.7" cy="294.8" r="5.4"/>
					<circle class="st18" cx="496.3" cy="294.8" r="5.4"/>
					<circle class="st18" cx="512.7" cy="294.8" r="5.4"/>
					<path class="st18" d="M529.8,300.4h12.8v-11.2h-12.8c-3.1,0-5.6,2.5-5.6,5.6l0,0C524.1,297.9,526.7,300.4,529.8,300.4z"/>
					<path class="st18" d="M474.9,322.3h67.7V311h-67.7c-3.1,0-5.6,2.5-5.6,5.6l0,0C469.3,319.7,471.8,322.3,474.9,322.3z"/>
				</g>
			</g>
		</g>
	</g>
	<g>
		<line class="st18" x1="515.3" y1="139.4" x2="510.8" y2="145.6"/>
		
			<ellipse transform="matrix(0.6048 -0.7964 0.7964 0.6048 100.2912 466.9153)" class="st21" cx="520.6" cy="132.4" rx="8.2" ry="8.2"/>
	</g>
</g>
<g id="Stars">
	<polygon class="st2" points="111.1,412.9 117.8,415.9 111,418.6 108,425.3 105.4,418.4 98.7,415.5 105.5,412.8 108.5,406.1 	"/>
	<path class="st22" d="M534.2,85.9l2.5,0.8l-2.5,0.8l-0.8,2.5l-0.8-2.5l-2.5-0.8l2.5-0.8l0.8-2.5L534.2,85.9z"/>
	<path class="st22" d="M244.2,21l2.5,0.8l-2.5,0.8l-0.8,2.5l-0.8-2.5l-2.5-0.8l2.5-0.8l0.8-2.5L244.2,21z"/>
</g>
</svg>
