<?xml version="1.0" encoding="UTF-8" standalone="no"?>
<!-- Created with Inkscape (http://www.inkscape.org/) -->

<svg
   width="152.69792mm"
   height="169.52875mm"
   viewBox="0 0 152.69792 169.52875"
   version="1.1"
   id="svg5"
   xml:space="preserve"
   inkscape:version="1.2.2 (b0a8486541, 2022-12-01)"
   sodipodi:docname="drawing_kndp.svg"
   xmlns:inkscape="http://www.inkscape.org/namespaces/inkscape"
   xmlns:sodipodi="http://sodipodi.sourceforge.net/DTD/sodipodi-0.dtd"
   xmlns="http://www.w3.org/2000/svg"
   xmlns:svg="http://www.w3.org/2000/svg"><sodipodi:namedview
     id="namedview7"
     pagecolor="#ffffff"
     bordercolor="#666666"
     borderopacity="1.0"
     inkscape:showpageshadow="2"
     inkscape:pageopacity="0.0"
     inkscape:pagecheckerboard="0"
     inkscape:deskcolor="#d1d1d1"
     inkscape:document-units="mm"
     showgrid="false"
     inkscape:zoom="0.71023424"
     inkscape:cx="832.11984"
     inkscape:cy="680.76132"
     inkscape:window-width="1866"
     inkscape:window-height="1044"
     inkscape:window-x="0"
     inkscape:window-y="0"
     inkscape:window-maximized="1"
     inkscape:current-layer="g1840" /><defs
     id="defs2" /><g
     inkscape:label="Layer 1"
     inkscape:groupmode="layer"
     id="layer1"
     transform="translate(-17.413531,-40.026625)"><g
       id="g1840"
       transform="translate(180.66291,-7.1493011)"><path
         d="m -89.94818,216.40699 c -1.65459,-0.45605 -3.08443,-1.1417 -7.40833,-3.55252 -3.56133,-1.98564 -12.02568,-6.89311 -13.7932,-7.99704 -1.8337,-1.14526 -3.85426,-3.43395 -4.80662,-5.44447 -0.84705,-1.7882 -0.84705,-1.7882 -0.97935,-9.46111 -0.14259,-8.2705 -0.1881,-8.53676 -1.5822,-9.25768 -1.70779,-0.88313 -2.16585,-0.71667 -8.74803,3.17906 -6.77202,4.00808 -8.19861,4.61538 -10.85398,4.62055 -3.59476,0.007 -4.30904,-0.28171 -14.40224,-5.82099 -4.12792,-2.26545 -5.33889,-3.06798 -6.77034,-4.48681 -2.01874,-2.00094 -3.20061,-4.23717 -3.65143,-6.90893 -0.45198,-2.67854 -0.38025,-17.91583 0.0949,-20.15806 0.7731,-3.64835 2.63274,-6.08473 6.10894,-8.00351 7.64354,-4.21906 11.69331,-6.57908 12.08637,-7.04341 1.3147,-1.55306 1.17443,-3.96997 -0.31492,-5.42608 -0.42758,-0.41804 -3.65586,-2.30665 -7.17395,-4.1969 -5.56486,-2.98998 -6.57838,-3.63313 -7.79512,-4.94659 -1.56804,-1.69268 -2.6565,-3.76787 -3.04173,-5.79921 -0.42653,-2.24909 -0.32133,-20.131661 0.13099,-22.266261 0.94065,-4.439101 2.94579,-6.498512 10.73869,-11.029327 9.68883,-5.633107 11.50154,-6.345553 15.29505,-6.011355 2.67983,0.236085 4.04788,0.761376 8.50193,3.26448 6.8501,3.849656 7.24732,4.04858 8.09681,4.054801 0.97637,0.0071 2.47932,-0.940068 2.94179,-1.854018 0.23759,-0.469548 0.33288,-2.515558 0.33849,-7.268099 0.009,-7.249567 0.238,-8.961482 1.51571,-11.309043 1.00773,-1.851543 3.23246,-3.767904 6.71303,-5.782558 1.65882,-0.960173 5.37955,-3.137421 8.26829,-4.838329 8.46863,-4.986391 9.64567,-5.458558 13.67826,-5.486985 1.70637,-0.01204 2.71342,0.136557 4.10104,0.605089 2.10354,0.710261 20.30382,11.065451 21.99913,12.516566 1.47188,1.25988 2.63338,3.082044 3.2621,5.117634 0.46178,1.49505 0.52301,2.469719 0.52432,8.345601 7.9e-4,3.659071 0.11969,7.07842 0.26418,7.598548 0.42153,1.517455 1.38002,2.229731 2.9968,2.226998 1.25488,-0.0021 1.69801,-0.202403 5.37009,-2.427155 7.33512,-4.444022 8.82464,-4.996712 12.86615,-4.774013 2.25551,0.124286 2.85749,0.265814 4.55059,1.069869 1.67432,0.795129 7.51811,4.049896 13.64226,7.598215 3.04691,1.765372 5.36654,4.756751 6.25034,8.060391 0.5144,1.92281 0.50698,21.385521 -0.009,23.322971 -1.09247,4.10306 -3.12607,6.02004 -10.76402,10.14682 -3.71865,2.00919 -6.06461,3.45308 -6.9065,4.25084 -1.17504,1.11344 -1.27498,1.30663 -1.27498,2.46479 0,2.21526 0.74795,3.10666 4.23334,5.04525 1.38244,0.76893 4.29948,2.37693 6.48229,3.57333 4.74082,2.59846 6.29377,3.97591 7.58319,6.72618 0.88348,1.8844 0.88348,1.8844 0.96789,11.67399 0.0947,10.98297 -0.004,11.96327 -1.49366,14.80747 -1.59529,3.04624 -2.85602,4.05999 -10.37629,8.34358 -7.63926,4.35136 -9.24076,5.01027 -12.20183,5.02025 -2.96113,0.01 -4.48519,-0.58088 -10.55694,-4.09274 -2.97428,-1.72031 -5.8485,-3.34713 -6.38718,-3.61517 -1.88755,-0.93923 -3.83713,-0.45486 -4.77695,1.18682 -0.23242,0.40599 -0.36791,2.8356 -0.46135,8.27294 -0.1323,7.69814 -0.1323,7.69814 -1.15674,9.71556 -1.20572,2.37441 -2.90967,4.09839 -5.59013,5.65586 -1.01866,0.59188 -3.99522,2.32283 -6.61459,3.84655 -7.48674,4.35514 -10.51105,5.98263 -12.19206,6.56098 -2.10738,0.72505 -5.63335,0.90622 -7.5194,0.38638 z m 6.37667,-9.68755 c 1.12476,-0.37271 13.42446,-7.35355 15.10394,-8.57242 0.682,-0.49495 1.57497,-1.46978 1.98438,-2.16629 0.74439,-1.26638 0.74439,-1.26638 0.82662,-8.22095 0.067,-5.66403 0.007,-7.21489 -0.3256,-8.35744 -0.50118,-1.72399 -2.02552,-3.52434 -3.77206,-4.45505 -0.70193,-0.37405 -3.65749,-2.02136 -6.5679,-3.66069 -7.5454,-4.25006 -7.65219,-4.29338 -10.58334,-4.29338 -2.99916,0 -3.04536,0.0196 -11.64166,4.94524 -6.65936,3.81575 -7.66872,4.56008 -8.81992,6.50401 -0.70508,1.19063 -0.70508,1.19063 -0.79039,8.20209 -0.0542,4.45308 0.0177,7.35899 0.19716,7.96391 0.4095,1.38087 1.90953,3.21554 3.37635,4.1296 0.70086,0.43674 2.52445,1.50798 4.05242,2.38052 1.52797,0.87254 3.96875,2.28584 5.42396,3.14067 3.60902,2.12002 5.50154,2.7428 8.36104,2.75138 1.25159,0.004 2.68034,-0.12728 3.175,-0.2912 z m -53.22426,-27.96994 c 0.35481,-0.25961 0.89059,-0.80242 1.19062,-1.20626 0.52442,-0.70584 0.54246,-1.01125 0.46634,-7.89674 -0.0487,-4.40916 -0.18807,-7.37531 -0.36247,-7.71608 -0.15582,-0.30447 -0.64747,-0.93838 -1.09256,-1.40868 -0.80926,-0.8551 -0.80926,-0.8551 1.02394,-0.83252 2.18112,0.0269 2.71397,-0.17974 7.32802,-2.84125 1.87295,-1.08037 4.11495,-2.32251 4.98223,-2.76031 2.16086,-1.0908 2.61981,-1.60369 2.61981,-2.92775 0,-0.85274 -0.15775,-1.2307 -0.72761,-1.74327 -0.40018,-0.35996 -3.27257,-2.004 -6.38308,-3.65342 -8.57224,-4.54562 -7.79287,-4.60721 -18.64874,1.4735 -4.99606,2.79845 -6.19894,3.71062 -7.24921,5.49723 -0.72573,1.23456 -0.72573,1.23456 -0.72573,9.03976 0,10.38454 -0.49139,9.49557 7.94316,14.37001 2.70492,1.56321 5.35801,2.9512 5.89577,3.08444 1.28845,0.31923 2.9375,0.10814 3.73951,-0.47866 z m 104.18358,0.16295 c 1.67092,-0.73102 10.8476,-6.1096 11.52106,-6.75266 0.39976,-0.38171 0.9706,-1.34552 1.26853,-2.1418 0.50523,-1.35036 0.53644,-1.93147 0.46378,-8.63607 -0.0779,-7.18827 -0.0779,-7.18827 -0.87747,-8.75069 -0.61918,-1.20992 -1.15642,-1.81061 -2.38125,-2.66249 -2.2659,-1.57594 -11.12885,-6.48482 -12.69418,-7.03086 -1.52219,-0.53099 -3.24331,-0.59992 -4.7625,-0.19075 -1.19069,0.3207 -11.4708,5.87253 -12.29397,6.63943 -1.01157,0.94242 -1.02322,2.71673 -0.0234,3.57276 0.54389,0.4657 9.23785,5.33401 11.05392,6.18981 0.80187,0.37787 1.6889,0.52971 3.13867,0.53728 2.02092,0.0106 2.02092,0.0106 1.2258,0.78793 -1.57911,1.54386 -1.64577,1.91801 -1.64577,9.23688 0,7.40333 0.12477,8.06636 1.69861,9.02608 0.94911,0.57877 3.17849,0.6694 4.30821,0.17515 z m -89.13396,-6.62453 c 2.58139,-1.70828 3.23165,-6.87101 1.10754,-8.7933 -1.3214,-1.19585 -4.57796,-0.62066 -6.06318,1.07092 -1.39954,1.59399 -1.88481,4.92451 -0.97411,6.6856 1.03286,1.99734 3.75819,2.47385 5.92975,1.03678 z m 74.88709,0.19277 c 2.19671,-1.84841 1.59105,-6.64781 -1.09772,-8.69863 -1.79177,-1.36666 -4.38281,-1.35733 -5.46596,0.0197 -1.92261,2.4442 -0.77632,6.98322 2.23602,8.85411 1.21837,0.7567 3.32137,0.67158 4.32766,-0.17516 z m -59.41681,-4.85212 c 3.65725,-1.92603 3.75999,-2.03901 3.75999,-4.13506 0,-2.11513 -0.11103,-2.23362 -3.95236,-4.21795 -3.08047,-1.59129 -4.60532,-1.74716 -5.61452,-0.5739 -0.5894,0.68523 -0.61958,0.91116 -0.61958,4.63863 0,3.55751 0.0503,3.9822 0.54581,4.61221 0.61159,0.77751 1.89618,1.23684 2.89377,1.03473 0.3638,-0.0737 1.7079,-0.6851 2.98689,-1.35866 z m 44.29263,0.65009 c 0.74236,-0.63883 0.74236,-0.63883 0.74236,-4.78558 0,-4.14675 0,-4.14675 -0.74236,-4.78514 -1.20685,-1.03783 -2.477,-0.87266 -5.45334,0.70917 -3.53311,1.87772 -3.99076,2.35437 -3.99076,4.15637 0,1.79056 0.42914,2.22796 3.96875,4.0452 2.97017,1.5249 4.28593,1.68349 5.47535,0.65998 z m -19.57368,-9.66773 c 4.23651,-1.9825 16.37625,-8.99804 17.92824,-10.36072 0.50126,-0.4401 1.24357,-1.47665 1.64958,-2.30345 0.73822,-1.50325 0.73822,-1.50325 0.73822,-14.20325 0,-12.7 0,-12.7 -0.74377,-14.21462 -0.40907,-0.83304 -1.06392,-1.76223 -1.45521,-2.06487 -1.54019,-1.19126 -16.06788,-9.64597 -18.65439,-10.85635 -2.0775,-0.97217 -4.49353,-1.23765 -7.29439,-0.8015 -2.12107,0.3303 -1.8656,0.19707 -14.26805,7.44032 -3.1013,1.81121 -6.04272,3.62612 -6.5365,4.03313 -0.49377,0.40701 -1.2901,1.53695 -1.7696,2.51097 -0.87184,1.77096 -0.87184,1.77096 -0.87184,13.95292 0,12.18196 0,12.18196 0.86962,13.9484 1.05189,2.1367 2.33767,3.32297 5.51018,5.08376 1.2933,0.7178 4.5541,2.55347 7.24624,4.07926 8.12162,4.60302 8.90302,4.86697 13.82428,4.66976 1.63393,-0.0655 2.41121,-0.25104 3.82739,-0.91376 z m -7.88631,-6.73366 c -0.78704,-0.32402 -3.63364,-1.84294 -6.32578,-3.37538 -2.69213,-1.53243 -5.6687,-3.21779 -6.61458,-3.74523 -1.04693,-0.58379 -1.97848,-1.34249 -2.38097,-1.93919 -0.64047,-0.9495 -0.66787,-1.17551 -0.87489,-7.21771 -0.11754,-3.43063 -0.16882,-7.7906 -0.11394,-9.68882 0.1515,-5.24052 0.0687,-5.13934 8.00001,-9.78083 5.95986,-3.4878 8.84528,-4.92511 10.188,-5.07492 1.62771,-0.1816 3.08395,0.41642 8.55741,3.51414 2.49586,1.41254 5.55824,3.14257 6.80529,3.84451 4.04149,2.27488 3.92569,1.88624 3.93226,13.19738 0.005,9.29719 -0.13795,10.81208 -1.12253,11.86297 -0.31855,0.34001 -2.18653,1.51991 -4.15106,2.622 -1.96453,1.1021 -4.83263,2.74151 -6.37357,3.64315 -4.60174,2.69259 -6.91652,3.21212 -9.52565,2.13793 z m 5.6662,-8.92843 c 2.29128,-1.16005 6.16011,-3.50129 6.88321,-4.16539 1.40864,-1.29374 1.49773,-1.71246 1.49773,-7.03994 0,-6.39813 0.0348,-6.32894 -4.49792,-8.93297 -7.01748,-4.03147 -6.87496,-4.01847 -12.29166,-1.1212 -6.35554,3.39944 -6.63055,3.86939 -6.32954,10.81609 0.19169,4.42382 0.33152,4.88594 1.91003,6.31202 1.3195,1.1921 5.83152,3.87016 7.58305,4.50085 1.61935,0.5831 3.64555,0.44038 5.2451,-0.36946 z m -37.37163,-4.43811 c 0.7734,-0.77339 0.7734,-0.77339 0.7734,-5.78515 0,-5.70038 -0.1291,-6.10639 -2.13259,-6.70665 -0.99019,-0.29666 -1.16196,-0.25501 -3.22695,0.78244 -3.93009,1.9745 -6.29295,3.48095 -6.5595,4.18203 -0.36893,0.97037 -0.30745,2.39854 0.14055,3.26487 0.40723,0.7875 1.85888,1.76148 5.69308,3.81974 2.81683,1.51213 4.13292,1.62182 5.31201,0.44272 z m 72.87236,0.0152 c 6.39714,-3.62001 6.74764,-3.93135 6.74198,-5.98867 -0.005,-1.77955 -0.42369,-2.21687 -4.22898,-4.41603 -3.77793,-2.18333 -4.88382,-2.4816 -6.48914,-1.75017 -1.26822,0.57784 -1.44782,1.36067 -1.44782,6.31065 0,4.20026 0.0416,4.59482 0.56187,5.32543 1.05465,1.48113 2.82725,1.67027 4.86209,0.51879 z m -88.044,-16.07238 c 0.47283,-0.36064 0.9499,-0.97778 1.06017,-1.37142 0.11028,-0.39364 0.19697,-3.87086 0.19266,-7.72716 -0.008,-6.71194 -0.0328,-7.05875 -0.59177,-8.11846 -0.32116,-0.60884 -0.85014,-1.29345 -1.17551,-1.52135 -0.56071,-0.39274 -0.4936,-0.41436 1.28611,-0.41436 1.03273,0 2.33914,-0.16615 2.90314,-0.36922 1.41963,-0.51114 10.67479,-5.869771 11.43554,-6.621041 0.74431,-0.73505 0.86387,-2.18374 0.25565,-3.09786 -0.59788,-0.89858 -12.61487,-7.339425 -14.38703,-7.71114 -2.27016,-0.476171 -3.58003,-0.01021 -9.55012,3.397223 -5.87443,3.352837 -7.00791,4.299027 -8.61641,7.192727 -0.99241,1.78535 -0.99241,1.78535 -0.99552,9.340171 -0.003,7.55482 -0.003,7.55482 0.67891,8.92348 0.88459,1.77513 1.40744,2.19062 6.24703,4.96421 6.41523,3.6766 7.50599,4.15194 9.07639,3.95532 0.79533,-0.0996 1.6632,-0.42636 2.18076,-0.82112 z m 108.33629,-2.34374 c 6.40366,-3.73446 7.13093,-4.28017 7.98306,-5.99017 0.69652,-1.39774 0.69652,-1.39774 0.69652,-8.47961 0,-6.603241 -0.0386,-7.185371 -0.57053,-8.613161 -1.3059,-3.50493 -2.41052,-4.51 -8.89351,-8.09202 -5.80101,-3.205213 -6.17962,-3.375486 -7.9004,-3.553087 -1.96493,-0.202798 -3.50931,0.368765 -8.16785,3.022867 -8.4708,4.82605 -8.33437,4.72144 -8.33437,6.39099 0,1.3321 1.03031,2.13073 7.04715,5.462471 5.25597,2.91042 5.25597,2.91042 7.52429,2.91042 2.26831,0 2.26831,0 1.48355,0.78575 -1.43324,1.43507 -1.50291,1.8778 -1.50291,9.55066 0,5.96748 0.0661,7.18537 0.43166,7.95577 0.63301,1.33398 1.48799,1.71609 3.57069,1.59583 1.67877,-0.0969 1.96101,-0.22232 6.63265,-2.94671 z m -94.23633,-3.64599 c 1.67177,-0.84522 2.71485,-2.61904 2.8575,-4.85932 0.12872,-2.02138 -0.21524,-2.98649 -1.4511,-4.07158 -0.7516,-0.65991 -1.12966,-0.79254 -2.25926,-0.79254 -1.96539,0 -3.41731,0.91863 -4.28579,2.71163 -1.35034,2.7878 -1.14664,5.33085 0.54606,6.81706 1.14684,1.00693 2.84385,1.0789 4.59259,0.19475 z m 74.6055,0.13188 c 1.41161,-0.70518 1.9056,-1.90321 1.7823,-4.32241 -0.0858,-1.68389 -0.22715,-2.19231 -0.87617,-3.15214 -0.85111,-1.25868 -2.2176,-2.09575 -3.74842,-2.29616 -2.11055,-0.2763 -3.91393,1.92317 -3.85595,4.70285 0.0812,3.89348 3.64762,6.59182 6.69824,5.06786 z m -58.43002,-12.49552 c 3.52153,-2.00961 3.39668,-1.8538 3.39668,-4.238961 0,-2.42199 0.1353,-2.26568 -3.74346,-4.325 -3.35197,-1.77964 -4.34991,-1.90984 -5.5373,-0.72244 -0.7734,0.7734 -0.7734,0.7734 -0.7734,5.1714 0,4.371431 0.004,4.402121 0.6806,5.078611 0.60117,0.60117 0.84551,0.66694 2.09342,0.56345 1.09176,-0.0905 1.97424,-0.43755 3.88346,-1.52706 z m 44.06162,0.94353 c 0.74236,-0.63835 0.74236,-0.63835 0.74236,-5.181991 0,-4.54363 0,-4.54363 -0.74236,-5.18248 -1.22303,-1.05251 -2.2912,-0.86941 -5.61373,0.96227 -1.59738,0.88062 -3.11269,1.84631 -3.36735,2.14598 -0.32938,0.38759 -0.46302,1.00466 -0.46302,2.13794 0,1.463661 0.0716,1.660131 0.8811,2.418091 0.4846,0.45374 1.97913,1.39054 3.32117,2.08176 2.86191,1.47404 4.07971,1.61771 5.24183,0.61843 z M -82.40755,94.988599 c 1.06829,-0.45115 2.67999,-1.37855 10.23201,-5.887677 6.62799,-3.957412 6.63272,-3.966935 6.51932,-13.127525 -0.0822,-6.639665 -0.0859,-6.677876 -0.78551,-7.994469 -0.87352,-1.643954 -1.77121,-2.494137 -3.75868,-3.559754 -0.85315,-0.457433 -4.06784,-2.275621 -7.14375,-4.040415 -6.31842,-3.625178 -7.55903,-4.173789 -9.43846,-4.173789 -1.90181,0 -3.59544,0.686943 -7.79576,3.16199 -2.03729,1.200476 -5.192453,3.033657 -7.01146,4.073734 -4.89733,2.800199 -6.10334,4.209796 -6.66954,7.795424 -0.34815,2.20477 -0.10564,10.697499 0.34878,12.214217 0.58239,1.943825 2.00446,3.19595 6.78625,5.975276 9.38286,5.453598 9.1745,5.345958 11.27369,5.823958 2.09631,0.47734 6.02064,0.33975 7.44311,-0.26097 z"
         style="fill:#011328;stroke-width:0.264583"
         id="path810"
         sodipodi:nodetypes="cssssssssssssssssssssscscssssssscscssssscssssssscssssssssssccsssscsssssscssscssscsssssssssssssscssssssssssccssccsssssssssssssssscsssssssssssssssssssssssssssssssssssscssssssscsssssssssssssscssscssscsssssssssccsssssscssssssssscsssssssssssssssssssccssssssssssssscssssssssss"
         inkscape:export-filename="../www/kndp/website/static/img/logo.png"
         inkscape:export-xdpi="116.43905"
         inkscape:export-ydpi="116.43905" /><path
         d="m -37.005882,122.75207 c -1.47796,-0.83988 -1.58736,-1.54135 -1.50179,-9.62948 0.0981,-9.27121 -0.38037,-8.35311 6.35513,-12.19478 2.65942,-1.516834 5.70861,-3.284198 6.77598,-3.927468 2.04909,-1.23493 1.80831,-1.19527 4.85292,-0.79955 0.24398,0.0317 0.38578,0.1512 0.31512,0.26554 -0.0707,0.11434 -0.0213,0.20789 0.10984,0.20789 0.63302,0 0.85124,2.317634 0.85124,9.040728 0,9.77869 0.42605,9.07269 -8.67958,14.38287 -4.67164,2.72439 -4.95388,2.84978 -6.63265,2.94671 -1.22404,0.0707 -1.96255,-0.0176 -2.44621,-0.29246 z"
         style="fill:#04658b;stroke-width:0.264583"
         id="path910"
         sodipodi:nodetypes="csssscssssc" /><path
         d="m -51.947444,139.14448 c -0.30944,-0.12495 -0.81546,-0.58227 -1.12448,-1.01626 -0.52024,-0.73061 -0.56187,-1.12517 -0.56187,-5.32543 0,-4.94998 0.1796,-5.73281 1.44782,-6.31065 1.60532,-0.73143 2.71121,-0.43316 6.48914,1.75017 3.80529,2.19916 4.22409,2.63648 4.22898,4.41603 0.006,2.05732 -0.34484,2.36866 -6.74198,5.98867 -1.33907,0.75775 -2.65825,0.93333 -3.73761,0.49747 z"
         style="fill:#04658b;stroke-width:0.264583"
         id="path943"
         sodipodi:nodetypes="ssssscss" /><path
         d="m -124.79458,138.87478 c -3.53148,-1.82811 -6.29845,-3.47763 -6.91765,-4.12394 -0.6322,-0.65987 -0.73498,-0.9784 -0.717,-2.2221 0.0264,-1.82901 0.26178,-2.09227 3.49976,-3.91481 5.36223,-3.0182 6.08087,-3.17464 7.60093,-1.65458 0.89959,0.89958 0.89959,0.89958 0.89959,5.715 0,4.81542 0,4.81542 -0.89959,5.715 -1.02067,1.02067 -2.13153,1.17625 -3.46604,0.48543 z"
         style="fill:#aecbcc;stroke-width:0.264583"
         id="path1036"
         sodipodi:nodetypes="sscsssss" /><path
         d="m -126.69229,116.50377 c -1.6927,-1.48621 -1.89641,-4.02926 -0.54607,-6.81706 0.86848,-1.793 2.3204,-2.71163 4.28579,-2.71163 1.1296,0 1.50766,0.13263 2.25926,0.79254 1.23586,1.08509 1.57982,2.0502 1.45111,4.07158 -0.2062,3.23828 -2.35672,5.45463 -5.29261,5.45463 -1.0188,0 -1.42855,-0.15005 -2.15748,-0.79006 z"
         style="fill:#04658b;stroke-width:0.264583"
         id="path1079"
         sodipodi:nodetypes="sssssss" /><path
         d="m -126.12333,172.94399 c -1.61958,-1.01757 -2.1831,-3.39537 -1.43361,-6.04918 0.67063,-2.37457 3.03274,-3.97456 5.4633,-3.7006 1.45277,0.16375 2.07988,0.68397 2.66202,2.20827 0.91748,2.40238 -0.0756,5.87065 -2.05618,7.18136 -1.41569,0.93686 -3.4643,1.09602 -4.63553,0.36015 z"
         style="fill:#04658b;stroke-width:0.264583"
         id="path1175"
         sodipodi:nodetypes="ssssss" /><path
         d="m -89.25524,206.73858 c -0.66146,-0.21184 -0.66146,-0.21184 0.0305,-0.23821 0.91873,-0.035 2.06402,-0.96699 2.51514,-2.04668 0.56007,-1.34042 0.52447,-15.60625 -0.0423,-16.96277 -0.22393,-0.53593 -0.52938,-1.04997 -0.67878,-1.1423 -0.1494,-0.0923 0.57191,-0.23861 1.60291,-0.32504 2.09502,-0.17564 2.35507,-0.29824 9.42214,-4.44177 4.65347,-2.7284 5.43534,-3.27674 5.89385,-4.13347 0.40602,-0.75866 0.39153,-2.53225 -0.0241,-2.95439 -0.18191,-0.18474 0.30311,-0.008 1.0778,0.39162 0.77469,0.40013 1.87833,1.26123 2.45253,1.91355 1.71639,1.94993 1.87243,2.91086 1.77742,10.94635 -0.1135,9.59905 0.53331,8.67952 -10.53328,14.97439 -3.56526,2.02799 -6.88701,3.82136 -7.38166,3.98527 -1.01178,0.33528 -5.09978,0.35764 -6.11208,0.0335 z"
         style="fill:#04658b;stroke-width:0.264583"
         id="path1271"
         sodipodi:nodetypes="ssssssssscssssss" /><path
         d="m -36.857823,178.75719 c -1.57384,-0.95972 -1.69861,-1.62275 -1.69861,-9.02608 0,-7.35376 0.0365,-7.55362 1.70299,-9.32039 0.49125,-0.52082 1.17225,-1.03218 1.51333,-1.13635 0.34107,-0.10417 1.57264,-0.75204 2.7368,-1.43971 1.16417,-0.68768 3.45834,-1.9998 5.09815,-2.91584 4.04296,-2.25849 5.10063,-3.52532 4.25791,-5.09995 -0.24067,-0.44969 -0.0412,-0.37612 0.99219,0.36588 0.9028,0.64826 1.53314,1.39686 2.08717,2.47877 0.79375,1.55002 0.79375,1.55002 0.87165,8.73829 0.0727,6.7046 0.0414,7.28571 -0.46378,8.63607 -0.29793,0.79628 -0.86877,1.76009 -1.26853,2.1418 -0.67346,0.64306 -9.85014,6.02164 -11.52106,6.75266 -1.12972,0.49425 -3.3591,0.40362 -4.30821,-0.17515 z"
         style="fill:#04658b;stroke-width:0.264583"
         id="path1304"
         sodipodi:nodetypes="ssssssssscssss" /><path
         d="m -67.481865,167.42457 c -1.60073,-0.83293 -3.0025,-1.59784 -3.11505,-1.69979 -0.59319,-0.53737 -0.73553,-3.46066 -0.19993,-4.10602 0.45558,-0.54894 4.90754,-2.99261 6.10645,-3.35181 1.17396,-0.35172 2.1785,-0.15414 2.9038,0.57116 0.47492,0.47493 0.52243,0.89269 0.52243,4.59416 0,4.76824 -0.15177,5.15167 -2.1271,5.37394 -1.04954,0.11809 -1.50238,-0.0349 -4.0906,-1.38164 z"
         style="fill:#aecbcc;stroke-width:0.264583"
         id="path1337"
         sodipodi:nodetypes="ssssssss" /><path
         d="m -51.316978,116.50097 c -0.68593,-0.34694 -1.50785,-1.07142 -1.96999,-1.73647 -0.66896,-0.96267 -0.80615,-1.43855 -0.87717,-3.0427 -0.0949,-2.14256 0.3511,-3.33617 1.58413,-4.23995 0.98164,-0.71952 2.78516,-0.66354 4.23853,0.13156 3.08892,1.68986 3.57091,7.60285 0.73522,9.01944 -1.24233,0.62061 -2.29706,0.58313 -3.71072,-0.13188 z"
         style="fill:#93be35;fill-opacity:1;stroke-width:0.264583"
         id="path1370"
         sodipodi:nodetypes="sscssss" /><path
         d="m -91.057969,94.620731 c -2.41031,-0.87393 -13.654921,-7.53414 -15.013051,-8.89227 -1.60839,-1.60839 -1.8459,-2.81615 -1.8459,-9.386525 0,-4.193053 0.099,-5.925886 0.39565,-6.924794 0.4745,-1.597797 2.02112,-3.441699 3.81017,-4.542506 1.28445,-0.790329 1.28445,-0.790329 1.09097,0.06753 -0.27292,1.210093 0.23149,2.491893 1.3178,3.34873 1.561537,1.23168 10.354981,6.150906 12.028571,6.729018 1.24027,0.428429 1.6928,0.741135 2.11667,1.462646 0.50843,0.865449 0.53913,1.347814 0.53913,8.470141 0,6.76996 -0.0483,7.62619 -0.4667,8.26453 -0.94805,1.44658 -2.42026,1.96661 -3.97331,1.4035 z"
         style="fill:#aecbcc;stroke-width:0.264583"
         id="path1428"
         sodipodi:nodetypes="sssssssssscs" /><path
         d="m -88.771582,95.51938 c -0.92604,-0.12904 -0.92604,-0.12904 0.26459,-0.70152 2.0433,-0.98247 2.11578,-1.30654 2.11625,-9.462687 5.3e-4,-7.079751 -0.13018,-8.289344 -1.0041,-9.299899 -0.37622,-0.435038 -0.28794,-0.463021 1.46082,-0.463021 2.115,0 2.73878,-0.269406 8.53953,-3.688201 6.97701,-4.112048 7.36126,-4.470035 7.07652,-6.592893 -0.0809,-0.602794 -0.0831,-1.095988 -0.005,-1.095988 0.29074,0 2.08222,1.165926 2.80885,1.828048 0.41375,0.377021 1.06859,1.280806 1.45521,2.00841 0.69957,1.316593 0.70332,1.354804 0.78551,7.994469 0.1134,9.16059 0.10867,9.170113 -6.51932,13.127525 -7.55202,4.509127 -9.16372,5.436527 -10.23201,5.887677 -1.07605,0.45442 -4.90668,0.7145 -6.74688,0.45808 z"
         style="fill:#04658b;stroke-width:0.264583"
         id="path1461"
         sodipodi:nodetypes="cscssscsssssscc" /><path
         id="path1714"
         style="fill:#ffb93d;fill-opacity:1;stroke-width:0.264583"
         d="m -86.45109,103.82867 c -0.882639,-0.0163 -1.77726,0.0439 -2.616894,0.18552 -2.086988,0.35202 -2.36565,0.4955 -12.337746,6.35103 -7.85437,4.61203 -8.36572,4.95259 -9.32191,6.20273 -1.76256,2.30439 -1.76855,2.34926 -1.86862,14.04255 -0.0498,5.82082 -0.0178,11.18127 0.0713,11.91193 0.16197,1.32847 0.16185,1.32839 2.59777,1.13895 1.33975,-0.10419 2.97181,-0.35196 3.62666,-0.55087 1.03439,-0.31421 1.17892,-0.44622 1.10122,-1.00666 -0.0492,-0.3548 -0.14954,-4.51497 -0.22324,-9.24439 -0.15261,-9.79651 -0.0325,-10.88206 1.36167,-12.27626 1.013,-1.01298 9.977901,-6.4005 14.432197,-8.67337 0.939974,-0.47963 2.193443,-0.72147 3.298506,-0.67128 z" /><path
         id="path6735"
         style="fill:#99bd34;fill-opacity:1;stroke-width:0.264583"
         d="m -86.45109,103.82867 0.120923,7.40988 c 0.379311,0.0172 0.740975,0.0688 1.066602,0.1571 0.580579,0.15738 2.305906,0.98575 3.833874,1.84072 1.527969,0.85496 4.325941,2.42458 6.217709,3.48815 5.420484,3.04747 5.711465,3.17122 7.446574,3.16622 1.968638,-0.006 4.1971,-1.05244 4.936649,-2.31872 0.46873,-0.80256 0.473967,-0.90642 0.07545,-1.51464 -0.23538,-0.35924 -0.927865,-0.90834 -1.538924,-1.22008 -0.61105,-0.31173 -3.555847,-2.02166 -6.544304,-3.79977 -7.282842,-4.33322 -10.497424,-6.12201 -11.867492,-6.60424 -1.058835,-0.37271 -2.388859,-0.5795 -3.747059,-0.60462 z" /><path
         d="m -92.057852,158.80123 c -1.01864,-0.47905 -4.05474,-2.1199 -6.74687,-3.64635 -2.692138,-1.52645 -5.952938,-3.36265 -7.246238,-4.08045 -1.29329,-0.71779 -2.86649,-1.75783 -3.496,-2.3112 -1.1916,-1.04745 -2.94483,-4.15558 -2.63075,-4.66377 0.0963,-0.15578 0.91217,-0.28499 1.81308,-0.28715 1.68354,-0.004 4.81814,-0.61949 5.33353,-1.04722 0.1902,-0.15786 0.46902,0.0302 0.81074,0.54673 0.28647,0.43302 1.29475,1.21826 2.24063,1.74495 0.94589,0.5267 3.922458,2.21145 6.614588,3.74388 2.69214,1.53244 5.54964,3.0534 6.35,3.37991 1.36718,0.55776 1.92141,0.24754 2.37299,1.57035 0.53498,1.5671 0.0499,4.85572 -0.52303,5.54601 -0.58725,0.7076 -2.8136,0.48203 -4.89266,-0.49569 z"
         style="fill:#f7762b;fill-opacity:1;stroke-width:0.264583"
         id="path1747" /><path
         d="m -87.440183,159.08707 c 0.54696,-1.0496 0.95372,-4.00603 0.51194,-5.5257 -0.23423,-0.8057 -0.45193,-1.12209 -0.36507,-1.26263 0.0869,-0.14055 -0.20686,-0.10686 0.43645,-0.10686 1.49934,0 3.45697,-0.60918 6.88885,-2.61503 1.52797,-0.89306 4.38547,-2.52545 6.35,-3.62755 1.96453,-1.10209 3.83251,-2.28199 4.15106,-2.622 0.31854,-0.34 0.70259,-1.15396 0.85342,-1.80881 0.36449,-1.58239 0.37384,-18.3305 0.011,-19.63709 -0.15031,-0.54119 -0.59613,-1.36933 -0.99071,-1.84031 -0.39459,-0.47099 -0.55515,-0.75699 -0.35678,-0.63556 0.19836,0.12142 1.03079,0.20532 1.84985,0.18644 1.97706,-0.0456 4.12736,-1.08179 4.87522,-2.34932 0.5156,-0.87388 0.56632,-0.89784 0.90901,-0.42952 1.0675,1.45884 1.15678,2.73063 1.07741,15.34921 -0.0763,12.13428 -0.0763,12.13428 -0.81453,13.63753 -0.40601,0.8268 -1.14832,1.86335 -1.64958,2.30345 -1.55199,1.36268 -13.69173,8.37822 -17.92824,10.36072 -1.361,0.63689 -2.27979,0.86606 -3.92421,0.97877 -2.04783,0.14036 -2.13501,0.1239 -1.88505,-0.35576 z"
         style="fill:#05658b;fill-opacity:1;stroke-width:0.264583"
         id="path1780" /><path
         d="m -141.63047,122.51783 c -2.82134,-1.33517 -9.76389,-5.39025 -10.67267,-6.23381 -0.48569,-0.45084 -1.14053,-1.29596 -1.45521,-1.87804 -0.54835,-1.01435 -0.57212,-1.37207 -0.57212,-8.60706 0,-6.742317 0.0516,-7.663277 0.48332,-8.621007 0.26582,-0.58975 0.62301,-1.09399 0.79375,-1.12053 2.52615,-0.39266 2.51636,-0.39428 4.21743,0.69984 2.58602,1.66331 10.9781,6.403967 11.33653,6.403967 0.17753,0 0.24745,0.0753 0.15537,0.16741 -0.0921,0.0921 0.14116,0.41015 0.51831,0.70681 0.37715,0.29667 0.90627,1.025 1.17584,1.61852 0.43744,0.96316 0.49032,1.83265 0.49203,8.09059 0.002,7.68586 -0.0348,7.89753 -1.55463,8.92174 -1.2621,0.85054 -2.9123,0.80073 -4.91795,-0.14843 z"
         style="fill:#12b0ba;stroke-width:0.264583"
         id="path844"
         sodipodi:nodetypes="ssssssssssscss" /><path
         d="m -141.45259,178.72948 c -2.31179,-1.04992 -10.08057,-5.6983 -11.0199,-6.59367 -1.79087,-1.70705 -1.92042,-2.41524 -1.92042,-10.49785 0,-7.02056 0.0109,-7.16428 0.63147,-8.33437 0.62738,-1.18292 1.88207,-2.85258 1.88207,-2.50453 0,0.10004 0.21199,-0.0799 0.4711,-0.39989 0.47111,-0.58179 0.47111,-0.58179 0.51741,0.0368 0.10737,1.43466 0.38348,1.78955 2.38331,3.06323 2.42236,1.5428 8.22185,4.84893 9.71487,5.53819 1.26012,0.58173 2.71061,2.01995 3.21454,3.18736 0.28197,0.65322 0.36752,2.43193 0.36752,7.64169 0,6.3462 -0.0349,6.84673 -0.53334,7.65325 -1.02422,1.65721 -3.54646,2.19172 -5.70863,1.20976 z"
         style="fill:#12b0ba;stroke-width:0.264583"
         id="path877"
         sodipodi:nodetypes="ssssssssssssss" /><path
         d="m -111.04956,105.4694 c -1.27327,-0.50605 -1.32292,-0.71446 -1.32292,-5.553647 0,-4.236424 0.0407,-4.629884 0.52917,-5.118374 0.90026,-0.90025 2.72286,-0.7204 4.7667,0.47037 0.94357,0.54975 2.15782,1.20816 2.69833,1.46314 0.54051,0.25498 1.16558,0.72465 1.38906,1.04371 0.49059,0.70042 0.53262,2.976861 0.0717,3.883021 -0.19018,0.3739 -1.44075,1.28202 -2.99114,2.17207 -2.53307,1.45419 -4.23881,1.99824 -5.1409,1.63971 z"
         style="fill:#12b0ba;stroke-width:0.264583"
         id="path1112"
         sodipodi:nodetypes="sscssssss" /><path
         d="m -92.303243,205.61378 c -5.1311,-2.6485 -12.612347,-7.22455 -13.666297,-8.35924 -1.76684,-1.90221 -1.94412,-2.7737 -1.94412,-9.55724 0,-3.24191 0.1293,-6.49588 0.28742,-7.23316 0.38177,-1.78012 1.70499,-3.64173 3.32354,-4.67579 1.31751,-0.84174 1.31751,-0.84174 1.20721,-0.0902 -0.14377,0.97953 0.77685,2.61068 1.87485,3.32187 3.339357,2.16295 11.984897,6.79845 12.911357,6.92272 0.72098,0.0967 0.9591,0.21755 0.72326,0.36706 -0.21929,0.13903 -0.23796,0.22443 -0.0496,0.22695 0.1661,0.002 0.49352,0.48271 0.7276,1.06774 0.35626,0.89038 0.4256,2.2928 0.4256,8.60746 0,8.19943 -0.0865,8.7841 -1.45882,9.86359 -1.04069,0.81861 -2.09843,0.70664 -4.36201,-0.46174 z"
         style="fill:#12b0ba;stroke-width:0.264583"
         id="path1238"
         sodipodi:nodetypes="ssssssssscsssss" /><path
         d="m -87.180707,137.17705 c 0,-5.91435 0.0403,-6.49822 0.45748,-6.63055 0.58108,-0.18432 5.03612,-2.70235 7.54708,-4.26568 1.06709,-0.66437 2.09427,-1.12767 2.31359,-1.04351 0.21695,0.0832 0.63281,0.54232 0.92414,1.02015 0.47846,0.78475 0.52936,1.32941 0.52633,5.63128 -0.004,6.04316 -0.0682,6.18847 -3.704,8.41589 -3.59547,2.20274 -6.04902,3.35808 -7.13111,3.35796 -0.93351,-1e-4 -0.93351,-1e-4 -0.93351,-6.48554 z"
         style="fill:#12b0ba;stroke-width:0.264583"
         id="path1494"
         sodipodi:nodetypes="ssscscsss" /></g></g></svg>
